<svg width="25" height="25" viewBox="0 0 25 25" fill="none" xmlns="http://www.w3.org/2000/svg">
<g filter="url(#filter0_d_1801_176)">
<circle cx="12.5" cy="11.5" r="9.5" fill="white" fill-opacity="0.01" shape-rendering="crispEdges"/>
</g>
<path d="M12.8164 11.5469V11.9277C12.8164 12.5762 12.7266 13.1582 12.5469 13.6738C12.3711 14.1895 12.1191 14.6289 11.791 14.9922C11.4668 15.3555 11.0801 15.6348 10.6309 15.8301C10.1855 16.0215 9.69141 16.1172 9.14844 16.1172C8.60547 16.1172 8.10938 16.0215 7.66016 15.8301C7.21094 15.6348 6.82031 15.3555 6.48828 14.9922C6.16016 14.6289 5.90625 14.1895 5.72656 13.6738C5.54688 13.1582 5.45703 12.5762 5.45703 11.9277V11.5469C5.45703 10.8984 5.54688 10.3164 5.72656 9.80078C5.90625 9.28125 6.1582 8.83984 6.48242 8.47656C6.81055 8.11328 7.19922 7.83594 7.64844 7.64453C8.09766 7.44922 8.59375 7.35156 9.13672 7.35156C9.67969 7.35156 10.1758 7.44922 10.625 7.64453C11.0742 7.83594 11.4609 8.11328 11.7852 8.47656C12.1133 8.83984 12.3672 9.28125 12.5469 9.80078C12.7266 10.3164 12.8164 10.8984 12.8164 11.5469ZM10.8887 11.9277V11.5352C10.8887 11.1016 10.8496 10.7188 10.7715 10.3867C10.6934 10.0508 10.5801 9.76953 10.4316 9.54297C10.2832 9.31641 10.0996 9.14648 9.88086 9.0332C9.66211 8.91602 9.41406 8.85742 9.13672 8.85742C8.84766 8.85742 8.5957 8.91602 8.38086 9.0332C8.16602 9.14648 7.98438 9.31641 7.83594 9.54297C7.69141 9.76953 7.58008 10.0508 7.50195 10.3867C7.42773 10.7188 7.39062 11.1016 7.39062 11.5352V11.9277C7.39062 12.3574 7.42773 12.7402 7.50195 13.0762C7.58008 13.4082 7.69336 13.6895 7.8418 13.9199C7.99023 14.1504 8.17188 14.3242 8.38672 14.4414C8.60547 14.5586 8.85938 14.6172 9.14844 14.6172C9.42578 14.6172 9.67188 14.5586 9.88672 14.4414C10.1055 14.3242 10.2891 14.1504 10.4375 13.9199C10.5859 13.6895 10.6973 13.4082 10.7715 13.0762C10.8496 12.7402 10.8887 12.3574 10.8887 11.9277ZM17.5156 7.46875V16H15.6113V7.46875H17.5156ZM20.1113 7.46875V8.95117H13.0684V7.46875H20.1113Z" fill="black"/>
<defs>
<filter id="filter0_d_1801_176" x="0" y="0" width="25" height="25" filterUnits="userSpaceOnUse" color-interpolation-filters="sRGB">
<feFlood flood-opacity="0" result="BackgroundImageFix"/>
<feColorMatrix in="SourceAlpha" type="matrix" values="0 0 0 0 0 0 0 0 0 0 0 0 0 0 0 0 0 0 127 0" result="hardAlpha"/>
<feOffset dy="1"/>
<feGaussianBlur stdDeviation="1.5"/>
<feComposite in2="hardAlpha" operator="out"/>
<feColorMatrix type="matrix" values="0 0 0 0 0 0 0 0 0 0 0 0 0 0 0 0 0 0 0.25 0"/>
<feBlend mode="normal" in2="BackgroundImageFix" result="effect1_dropShadow_1801_176"/>
<feBlend mode="normal" in="SourceGraphic" in2="effect1_dropShadow_1801_176" result="shape"/>
</filter>
</defs>
</svg>
